<?xml version="1.0" encoding="UTF-8" standalone="no"?>
<svg viewBox="0 0 128 128" xmlns="http://www.w3.org/2000/svg" xmlns:xlink="http://www.w3.org/1999/xlink">
<defs>
<linearGradient id="linearGradient3632">
<stop offset="0" stop-color="#999" stop-opacity="0"/>
<stop offset=".50655" stop-color="#e6e6e6"/>
<stop offset="1" stop-color="#999" stop-opacity="0"/>
</linearGradient>
<linearGradient gradientUnits="userSpaceOnUse" id="linearGradient3680" x2="0" y1="1052.2737" y2="924.3404">
<stop offset="0" stop-color="#986601"/>
<stop offset=".3308" stop-color="#fdca01"/>
<stop offset="1" stop-color="#ff9"/>
</linearGradient>
<linearGradient gradientUnits="userSpaceOnUse" id="linearGradient2856" x2="0" y1="8.85251" y2="91.24233">
<stop offset="0" stop-color="#eee"/>
<stop offset="1" stop-color="#eee" stop-opacity="0"/>
</linearGradient>
<linearGradient gradientUnits="userSpaceOnUse" id="linearGradient3638" x1="9.42894" x2="119.84052" xlink:href="#linearGradient3632"/>
<linearGradient gradientTransform="matrix(-.22907,.39622,-.39675,-.22876,160.43552,982.35089)" gradientUnits="userSpaceOnUse" id="linearGradient3644" x1="2.39788" x2="260.11157" xlink:href="#linearGradient3632" y1="121.40089" y2="127.34224"/>
<linearGradient gradientTransform="matrix(.22907,.39622,.39675,-.22876,-31.74477,985.74645)" gradientUnits="userSpaceOnUse" id="linearGradient3648" x1="19.10717" x2="260.11157" xlink:href="#linearGradient3632"/>
</defs>
<g transform="translate(0,-924.36218)">
<g transform="translate(-3,-2)">
<path d="m15.5625,1033.9688h106.5625l-53.28125-92.12505-53.28125,92.12505z" opacity=".03"/>
<path d="m15.03125,1034.2812h107.625l-53.8125-93.0937-53.8125,93.0937z" opacity=".03"/>
<path d="m68.78125,940.65625c-17.86705,31.26827-36.69193,62.85325-54.03125,93.90625 36.09104-.084 72.45258.167 108.375-.125-18.12273-31.2282-36.17986-62.71402-54.34375-93.78125z" opacity=".03"/>
<path d="m68.71875,940.34375c-18.21641,31.323-36.51566,62.85885-54.46875,94.28125 3.74173.6849 8.40056.01 12.4375.25 32.19949-.1047 64.63462.2091 96.6875-.1562-2.01836-4.5363-5.32611-9.2498-7.78102-13.8467-15.60562-26.8084-31.03587-53.9715-46.75023-80.5596-.04179.009-.10287-.0245-.125.0312z" opacity=".03"/>
<path d="m68.625,940.0625c-1.89844,2.49808-3.28205,5.61534-4.99705,8.33338-16.53396,28.68448-33.22046,57.33752-49.65921,86.04162 .03222,1.4296 2.38462.414 3.325.7187 35.33527-.021 70.70506.042 106.01875-.031 1.22525-.6532-.7388-2.314-1.00779-3.2436-17.6836-30.5632-35.37768-61.22113-53.05471-91.72515-.17511-.11773-.42125-.17697-.625-.0937z" opacity=".03"/>
<path d="m68.59375,939.65625c-.84915.26354-1.04604,1.3532-1.55705,2.02713l-53.38045,92.34782c-.38242.719.17471,1.5807.975,1.5313h108.525c.89258-.022 1.26685-1.0887.72476-1.7909l-54.16226-93.61535c-.13844-.39413-.69914-.63415-1.125-.5z" opacity=".03"/>
<path d="m68.5625,939.4375c-1.59029.85105-1.90589,3.12983-3.03326,4.48971-17.3826,30.12088-34.86542,60.21889-52.18549,90.35399-.26697,1.59 1.85701,1.73 2.9875,1.5 35.67693-.021 71.38839.042 107.04375-.031 1.49785-.393.95277-2.2528.0615-3.1109-17.9457-30.9718-35.82398-62.04135-53.8115-92.9518-.29837-.1963-.69598-.36722-1.0625-.25z" opacity=".03"/>
<path d="m68.4375,939.1875c-2.66552,1.85677-3.37633,5.93312-5.44151,8.47941-16.5968,28.90914-33.57075,57.68499-49.93349,86.67689 .03767,3.0044 4.46161,1.2959 6.26875,1.7187 34.80731-.1049 69.68884.2093 104.45-.1563 2.48477-1.8446-1.4715-4.7803-2.01675-6.799-17.3631-29.87443-34.5296-59.95355-52.0145-89.70095-.3632-.23912-.89982-.38311-1.3125-.21875z" opacity=".03"/>
<path d="m68.28125,938.90625c-4.24167,4.50666-6.41899,11.25217-10.03927,16.42758-15.09452,26.42114-30.79868,52.67447-45.52323,79.19737 .97349,3.9884 7.09121.8607 9.9125,1.8438 33.76666-.1709 67.71168.339 101.36875-.25 3.02785-2.6896-2.75748-6.5679-3.33688-9.4803-17.04167-29.14204-33.62407-58.76297-50.94437-87.61345-.44673-.17465-.97621-.34944-1.4375-.125z" opacity=".03"/>
<path d="m68.25,938.625c-4.24834,3.6207-5.79961,10.30836-9.25713,14.82104-15.41742,27.05725-31.59272,53.89936-46.55537,81.08516 .9832,4.5373 7.95066,1.0268 11.09375,2.125 33.5183-.1928 67.21716.3823 100.625-.2812 3.39168-3.0568-2.98383-7.3811-3.69406-10.6654-16.91632-28.89623-33.34349-58.32448-50.55594-86.8971-.47527-.26042-1.13878-.4023-1.65625-.1875z" opacity=".03"/>
<path d="m68.15625,938.3125c-4.44705,3.59724-5.908,10.41675-9.44463,14.97729-15.46064,27.02312-31.4413,53.84841-46.58662,80.99141 .50474,5.1808 8.15186,1.69 11.40625,2.6876 33.57273-.2149 67.30761.4253 100.78125-.3126 3.72904-3.2084-2.74749-7.7207-3.56937-11.1027-16.97313-28.93333-33.34182-58.43097-50.68063-87.02225-.58501-.29694-1.28074-.43981-1.90625-.21875z" opacity=".03"/>
</g>
<path d="m64.58463,936.66528a.91635,.91512 0 0,0 -.74446.45752l-54.28852,93.9048a.91635,.91512 0 0,0 .78741,1.3726h108.59135a.91635,.91512 0 0,0 .78742-1.3726l-54.28852-93.9048a.91635,.91512 0 0,0 -.84468-.45752z" fill="#999"/>
<path d="m65.64555,999.7702-56.0939,31.2574c-.31872.5515.14982,1.3682.78741,1.3726h108.59135c.6376,0 1.10614-.8211.78742-1.3726-54.09947-31.0324-54.13325-31.2972-54.07228-31.2574z" fill="url(#linearGradient3638)"/>
<path d="m65.15333,937.6494c-.31889-.5514-1.26141-.55452-1.58397-.005l-54.29568,93.916c-.31523.5535.15893,1.3672.79655,1.3673 14.09449-12.9345 46.14968-28.8362 55.90458-35.2323l-.82149-60.046z" fill="url(#linearGradient3644)"/>
<path d="m63.53742,941.04497c.31889-.5514 1.26141-.55453 1.58397-.005l54.29568,93.91633c.31523.5535-.15893,1.3672-.79655,1.3673 .2424-.1153-53.18781-32.8131-53.21153-32.8159l-1.87157-62.46245z" fill="url(#linearGradient3648)"/>
<path d="m16.65267,1027.825h95.96412l-47.97491-82.96735-47.98922,82.96735z" fill="url(#linearGradient3680)"/>
<path d="m57.4836,974.01832 2.86332,32.59788h7.3301l3.89411-32.59788h-14.08753z" stroke="#333"/>
<path d="m69.62407,1016.2812c0,3.1269-2.53827,5.6617-5.66937,5.6617s-5.66937-2.5348-5.66937-5.6617 2.53827-5.6617 5.66937-5.6617 5.66937,2.5348 5.66937,5.6617z" stroke="#333"/>
<path d="m64.5,936.67468a.91635,.91512 0 0,0 -.65625.4375l-54.28125,93.90622a.91635,.91512 0 0,0 .78125,1.375h.75l52.75-91.28122a.91635,.91512 0 0,1 .75-.4375 .91635,.91512 0 0,1 .84375.4375l52.75,91.28122h.75a.91635,.91512 0 0,0 .78125-1.375l-54.28125-93.90622a.91635,.91512 0 0,0 -.84375-.4375 .91635,.91512 0 0,0 -.09375,0z" fill="#eee" opacity=".5"/>
<path d="m9.96875,1030.3309-.40625.6875a.91635,.91512 0 0,0 .78125,1.375h108.59375a.91635,.91512 0 0,0 .78125-1.375l-.40625-.6875a.91635,.91512 0 0,1 -.375.062h-108.59375a.91635,.91512 0 0,1 -.375-.062z" fill="#eee" opacity=".4"/>
<path d="m64.65625,20.5-30.4375,52.59375c10.34449-5.4402 23.95841-8.71875 38.875-8.71875 6.23171,0 12.24121.58818 17.875,1.65625l-26.3125-45.53125z" fill="url(#linearGradient2856)" transform="translate(0,924.36218)"/>
</g>
</svg>
