<?xml version="1.0" encoding="UTF-8" standalone="no"?>
<!-- Generator: Adobe Illustrator 16.0.4, SVG Export Plug-In . SVG Version: 6.00 Build 0)  -->

<svg
   xmlns:dc="http://purl.org/dc/elements/1.1/"
   xmlns:cc="http://creativecommons.org/ns#"
   xmlns:rdf="http://www.w3.org/1999/02/22-rdf-syntax-ns#"
   xmlns:svg="http://www.w3.org/2000/svg"
   xmlns="http://www.w3.org/2000/svg"
   xmlns:sodipodi="http://sodipodi.sourceforge.net/DTD/sodipodi-0.dtd"
   xmlns:inkscape="http://www.inkscape.org/namespaces/inkscape"
   version="1.1"
   id="Capa_1"
   x="0px"
   y="0px"
   width="34.156px"
   height="33.667px"
   viewBox="0 0 34.156 33.667"
   style="enable-background:new 0 0 34.156 33.667;"
   xml:space="preserve"
   inkscape:version="0.91 r13725"
   sodipodi:docname="buying4.2.svg"><metadata
     id="metadata3373"><rdf:RDF><cc:Work
         rdf:about=""><dc:format>image/svg+xml</dc:format><dc:type
           rdf:resource="http://purl.org/dc/dcmitype/StillImage" /><dc:title></dc:title></cc:Work></rdf:RDF></metadata><defs
     id="defs3371" /><sodipodi:namedview
     pagecolor="#ffffff"
     bordercolor="#666666"
     borderopacity="1"
     objecttolerance="10"
     gridtolerance="10"
     guidetolerance="10"
     inkscape:pageopacity="0"
     inkscape:pageshadow="2"
     inkscape:window-width="1920"
     inkscape:window-height="1017"
     id="namedview3369"
     showgrid="false"
     inkscape:zoom="25.18787"
     inkscape:cx="17.077999"
     inkscape:cy="16.8335"
     inkscape:window-x="-8"
     inkscape:window-y="-8"
     inkscape:window-maximized="1"
     inkscape:current-layer="Capa_1" /><path
     d="M17.975,24.857v4.603H1.58V3.605h16.395v4.953h1.582V2.273C19.557,1.021,18.533,0,17.283,0H2.273C1.021,0,0,1.021,0,2.273  v29.119c0,1.252,1.021,2.274,2.273,2.274h15.01c1.25,0,2.273-1.022,2.273-2.274v-6.535H17.975z M7.376,1.641h4.802  c0.152,0,0.275,0.121,0.275,0.273c0,0.15-0.123,0.275-0.275,0.275H7.376c-0.152,0-0.274-0.125-0.274-0.275  C7.102,1.762,7.224,1.641,7.376,1.641z M9.777,32.531c-0.627,0-1.137-0.51-1.137-1.139c0-0.627,0.51-1.136,1.137-1.136  c0.629,0,1.139,0.509,1.139,1.136C10.915,32.021,10.406,32.531,9.777,32.531z M25.406,23.466H9.14l-2.993-13.44h18.301l-0.496,1.926  H8.547l2.137,9.591h13.178l3.31-14.991h6.985v1.924h-5.44L25.406,23.466z M14.531,26.021c0,0.992-0.806,1.797-1.795,1.797  c-0.992,0-1.797-0.805-1.797-1.797c0-0.99,0.805-1.795,1.797-1.795C13.727,24.227,14.531,25.031,14.531,26.021z M23.922,26.021  c0,0.992-0.805,1.797-1.797,1.797c-0.99,0-1.795-0.805-1.795-1.797c0-0.99,0.805-1.795,1.795-1.795  C23.117,24.227,23.922,25.031,23.922,26.021z"
     id="path3337" /><g
     id="g3339" /><g
     id="g3341" /><g
     id="g3343" /><g
     id="g3345" /><g
     id="g3347" /><g
     id="g3349" /><g
     id="g3351" /><g
     id="g3353" /><g
     id="g3355" /><g
     id="g3357" /><g
     id="g3359" /><g
     id="g3361" /><g
     id="g3363" /><g
     id="g3365" /><g
     id="g3367" /><path
     style="fill:#a0a0a0;stroke:none;stroke-width:1px;stroke-linecap:butt;stroke-linejoin:miter;stroke-opacity:1"
     d="M 1.8011464,33.590863 C 0.87647477,33.388987 0.16658585,32.614195 0.04314903,31.672136 0.01696816,31.472326 0.0072391,26.317708 0.01473727,16.619111 0.02570614,2.4312911 0.02891456,1.8616372 0.09903762,1.6515887 0.29408556,1.067337 0.71364222,0.55941174 1.2215021,0.29270673 1.7675759,0.00593349 1.1577358,0.02505916 9.7764701,0.02440782 c 7.6171889,-5.7563e-4 7.7711229,9.1604e-4 8.0734359,0.07823459 0.169504,0.0433518 0.409083,0.13604912 0.532398,0.20599407 0.337433,0.19139414 0.723065,0.59630298 0.897158,0.94200522 0.262143,0.5205482 0.258585,0.4650763 0.25935,4.0435734 l 6.89e-4,3.2257591 -0.774182,0 -0.774182,0 0,-2.4615023 0,-2.4615023 -8.2182416,0 -8.2182417,0 0,12.9427384 0,12.942738 8.2182417,0 8.2182416,0 0,-2.302696 0,-2.302696 0.775424,0 0.775423,0 -0.01117,3.48382 -0.01117,3.48382 -0.102373,0.262808 c -0.148755,0.381881 -0.29987,0.62132 -0.549972,0.871422 -0.250102,0.250102 -0.489541,0.401217 -0.871422,0.549972 l -0.262808,0.102372 -7.8410757,0.0071 c -6.5209567,0.0059 -7.8831285,-0.0021 -8.0908539,-0.04747 z m 8.4799386,-1.172799 c 0.278034,-0.138935 0.416056,-0.285045 0.555187,-0.587722 0.08376,-0.182225 0.09518,-0.254465 0.07929,-0.501942 -0.03237,-0.504343 -0.332479,-0.893903 -0.794313,-1.031052 -0.449069,-0.13336 -0.811522,-0.04048 -1.1455658,0.293568 -0.3327363,0.332736 -0.4268554,0.69674 -0.2949777,1.140821 0.1481376,0.498832 0.5678317,0.802045 1.115622,0.805993 0.1924986,0.0014 0.2913275,-0.02301 0.4847545,-0.119666 z M 12.375158,2.1099623 c 0.116895,-0.1168954 0.124752,-0.2570529 0.02155,-0.3844974 l -0.0759,-0.093727 -2.5429958,0 c -2.3609917,0 -2.5479277,0.00493 -2.6119065,0.068911 -0.103075,0.1030752 -0.090532,0.3406794 0.022831,0.4324751 0.087464,0.070824 0.2082443,0.074288 2.5903525,0.074288 l 2.4986106,0 0.09745,-0.09745 z"
     id="path3375"
     inkscape:connector-curvature="0" /><path
     style="fill:#a0a0a0;stroke:none;stroke-width:1px;stroke-linecap:butt;stroke-linejoin:miter;stroke-opacity:1"
     d="m 7.6636515,16.748236 -1.4916296,-6.699748 9.1120721,-0.01001 c 5.01164,-0.0055 9.117582,-0.0045 9.124317,0.0022 0.0067,0.0067 -0.09447,0.426046 -0.224891,0.931803 -0.130424,0.505756 -0.237135,0.929062 -0.237135,0.94068 0,0.01162 -3.465954,0.02112 -7.702121,0.02112 -4.236166,0 -7.7026712,0.0134 -7.7033452,0.02978 -6.742e-4,0.01638 0.4769419,2.178184 1.0613687,4.804016 l 1.0625945,4.77424 6.610589,-0.01004 6.61059,-0.01004 1.648004,-7.473423 1.648004,-7.4734235 3.48382,-4.126e-4 3.48382,-4.125e-4 0,0.9329888 0,0.9329887 -2.719563,0 c -1.49576,0 -2.720566,0.00447 -2.721792,0.00993 -0.0012,0.00546 -0.747213,3.3776176 -1.657751,7.4936866 l -1.655523,7.483761 -8.119899,0.01002 -8.1198999,0.01002 -1.4916296,-6.699749 z"
     id="path3377"
     inkscape:connector-curvature="0" /><path
     style="fill:#a0a0a0;stroke:none;stroke-width:1px;stroke-linecap:butt;stroke-linejoin:miter;stroke-opacity:1"
     d="m 12.432906,27.77142 c -0.331312,-0.05545 -0.702406,-0.255057 -0.95811,-0.515345 -0.715869,-0.728706 -0.675271,-1.866883 0.09117,-2.55598 0.877971,-0.789372 2.230846,-0.509739 2.765255,0.571564 0.143094,0.289532 0.146319,0.306163 0.146319,0.754684 0,0.437607 -0.006,0.470818 -0.130079,0.724562 -0.363536,0.743214 -1.130099,1.151815 -1.914556,1.020515 z"
     id="path3379"
     inkscape:connector-curvature="0" /><path
     style="fill:#ffffff;stroke:none;stroke-width:1px;stroke-linecap:butt;stroke-linejoin:miter;stroke-opacity:1"
     d="m 21.85384,27.774423 c -0.434164,-0.0625 -0.937756,-0.386349 -1.20114,-0.772421 -0.293605,-0.430372 -0.377589,-1.065364 -0.204908,-1.549274 0.177998,-0.498809 0.577685,-0.909073 1.062267,-1.090378 1.403097,-0.524966 2.801068,0.873005 2.276102,2.276102 -0.291307,0.778589 -1.102445,1.255439 -1.932321,1.135971 z"
     id="path3381"
     inkscape:connector-curvature="0" /><path
     style="fill:#ffffff"
     d="M 9.1585713,23.368392 C 9.1487593,23.335638 8.4868981,20.369924 7.6877685,16.777918 6.8886389,13.185911 6.2249806,10.206798 6.2129722,10.157667 l -0.021833,-0.08933 9.0967381,0 9.096738,0 -0.02505,0.109179 c -0.01378,0.06005 -0.10388,0.427301 -0.200228,0.816117 -0.09635,0.388816 -0.164757,0.723798 -0.152021,0.744406 0.01274,0.02061 0.0042,0.03747 -0.01889,0.03747 -0.02313,0 -0.04205,0.02391 -0.04205,0.05313 0,0.04397 -0.911763,0.05773 -5.290245,0.07982 -2.909635,0.01468 -6.374267,0.0273 -7.699184,0.02804 l -2.408938,0.0014 0.018139,0.185228 c 0.00998,0.101875 0.030987,0.194875 0.04669,0.206665 0.015703,0.01179 0.034317,0.09265 0.041364,0.179685 0.00705,0.08704 0.024912,0.167432 0.039702,0.178657 0.014789,0.01123 0.031206,0.09073 0.036482,0.176668 0.00528,0.08594 0.023142,0.166338 0.039702,0.178658 0.01656,0.01232 0.034426,0.09272 0.039702,0.178657 0.00528,0.08594 0.023142,0.166338 0.039702,0.178657 0.01656,0.01232 0.034426,0.09272 0.039702,0.178658 0.00528,0.08594 0.023142,0.166337 0.039702,0.178657 0.01656,0.01232 0.034426,0.09272 0.039702,0.178658 0.00528,0.08594 0.023142,0.166337 0.039702,0.178657 0.01656,0.01232 0.034426,0.09271 0.039702,0.178658 0.00528,0.08594 0.023142,0.166337 0.039702,0.178657 0.01656,0.01232 0.034426,0.09272 0.039702,0.178657 0.00528,0.08594 0.023142,0.166338 0.039702,0.178658 0.01656,0.01232 0.034426,0.09272 0.039702,0.178657 0.00528,0.08594 0.023142,0.166338 0.039702,0.178658 0.01656,0.01232 0.034558,0.09386 0.039995,0.181192 0.00544,0.08734 0.027881,0.164793 0.049874,0.172123 0.021993,0.0073 0.029882,0.02968 0.017531,0.04967 -0.017161,0.02777 1.1826184,5.550907 1.2778114,5.882353 0.0189,0.06581 0.369619,0.06948 6.647455,0.06948 3.645125,-1e-6 6.6275,-0.0081 6.6275,-0.01793 0,-0.0099 0.375638,-1.719825 0.834751,-3.799927 0.459114,-2.080101 0.826365,-3.803859 0.816115,-3.830571 -0.01025,-0.02671 -0.0018,-0.05419 0.01887,-0.06107 0.02063,-0.0069 0.04196,-0.08396 0.0474,-0.171297 0.0054,-0.08734 0.02074,-0.167726 0.03401,-0.178644 0.04105,-0.03379 0.44102,-1.899397 0.415917,-1.940014 -0.01301,-0.02106 -0.0057,-0.04429 0.01632,-0.05162 0.02199,-0.0073 0.04444,-0.08479 0.04988,-0.172122 0.0054,-0.08734 0.02343,-0.168874 0.04,-0.181193 0.01656,-0.01232 0.03443,-0.09272 0.0397,-0.178658 0.0053,-0.08594 0.02045,-0.165191 0.03371,-0.176109 0.04105,-0.03379 0.441019,-1.8993965 0.415917,-1.9400127 -0.01301,-0.021058 -0.0057,-0.044286 0.01633,-0.051617 0.02199,-0.00733 0.04444,-0.084787 0.04988,-0.172123 0.0054,-0.087336 0.02343,-0.1688734 0.03999,-0.1811931 0.01656,-0.01232 0.03443,-0.092716 0.0397,-0.1786574 0.0053,-0.085942 0.02314,-0.1663378 0.0397,-0.1786575 0.01656,-0.01232 0.03443,-0.092715 0.0397,-0.1786574 0.0053,-0.085942 0.02463,-0.167258 0.04301,-0.1807025 0.01838,-0.013445 0.03625,-0.098206 0.0397,-0.1883582 0.0035,-0.090153 0.01664,-0.1640148 0.0293,-0.1641383 0.01266,-1.231e-4 0.0539,-0.147617 0.09165,-0.3277632 0.03775,-0.1801463 0.07773,-0.3588037 0.08884,-0.3970166 0.01905,-0.065486 0.21967,-0.069478 3.491427,-0.069478 l 3.471219,0 0,0.9329888 0,0.9329887 -2.744042,0 -2.744042,0 0.01871,0.097869 c 0.01029,0.053828 0.0034,0.1029646 -0.01526,0.1091925 -0.01868,0.00623 -0.03842,0.082781 -0.04386,0.1701171 -0.0054,0.087336 -0.02343,0.1688734 -0.04,0.1811931 -0.01656,0.01232 -0.03443,0.092715 -0.0397,0.1786574 -0.0053,0.085942 -0.02314,0.1663378 -0.0397,0.1786575 -0.01656,0.01232 -0.03443,0.092716 -0.0397,0.1786574 -0.0053,0.085942 -0.02314,0.1663377 -0.0397,0.1786574 -0.01656,0.01232 -0.03443,0.092716 -0.0397,0.1786574 -0.0053,0.085942 -0.02064,0.1651912 -0.03414,0.1761092 -0.03944,0.03189 -0.27986,1.187878 -0.255316,1.227591 0.01226,0.01984 0.0043,0.04208 -0.01769,0.04941 -0.02199,0.0073 -0.04444,0.08479 -0.04988,0.172123 -0.0054,0.08734 -0.02343,0.168873 -0.04,0.181193 -0.01656,0.01232 -0.03443,0.09272 -0.0397,0.178657 -0.0053,0.08594 -0.02314,0.166338 -0.0397,0.178658 -0.01656,0.01232 -0.03443,0.09272 -0.0397,0.178657 -0.0053,0.08594 -0.02314,0.166338 -0.0397,0.178657 -0.01656,0.01232 -0.03442,0.09272 -0.0397,0.178658 -0.0053,0.08594 -0.02314,0.166338 -0.0397,0.178657 -0.01656,0.01232 -0.03443,0.09272 -0.0397,0.178658 -0.0053,0.08594 -0.02314,0.166338 -0.0397,0.178657 -0.01656,0.01232 -0.03443,0.09272 -0.0397,0.178658 -0.0053,0.08594 -0.02045,0.165191 -0.03371,0.176109 -0.04105,0.03379 -0.441019,1.899396 -0.415917,1.940013 0.01301,0.02106 0.0057,0.04429 -0.01632,0.05162 -0.02199,0.0073 -0.04444,0.08479 -0.04988,0.172123 -0.0054,0.08734 -0.02343,0.168873 -0.04,0.181192 -0.01656,0.01232 -0.03443,0.09272 -0.0397,0.178658 -0.0053,0.08594 -0.02314,0.166338 -0.0397,0.178657 -0.01656,0.01232 -0.03443,0.09272 -0.0397,0.178658 -0.0053,0.08594 -0.02054,0.165191 -0.03392,0.176109 -0.01338,0.01092 -0.360952,1.543297 -0.772379,3.405288 -0.411426,1.86199 -0.75811,3.401717 -0.770407,3.421614 -0.01329,0.02151 -3.301862,0.04128 -8.111346,0.04876 -7.163092,0.01114 -8.0910297,0.0058 -8.1068277,-0.04697 z"
     id="path3403"
     inkscape:connector-curvature="0" /><path
     style="fill:#ffffff"
     d="M 9.7331937,33.611418 1.7730128,33.591567 1.5348029,33.496314 C 0.9954337,33.280638 0.55793187,32.898264 0.30941081,32.425328 0.02005528,31.874683 0.04267503,33.273166 0.05486414,16.687791 L 0.06584178,1.7508428 0.17317049,1.5004175 C 0.3071696,1.1877634 0.58771906,0.79090389 0.80972962,0.59995415 0.90281721,0.51989018 1.0951071,0.389823 1.2370405,0.31091602 1.3789739,0.23200901 1.5040341,0.15746467 1.514952,0.14526192 1.5513657,0.10456314 1.7535083,0.10033541 5.4851171,0.06222753 9.6160199,0.02004197 17.413314,0.0480456 17.752927,0.10628681 c 0.800348,0.13725411 1.580399,0.93369389 1.70529,1.74111819 0.02184,0.1411953 0.05173,1.6891799 0.06685,3.4623347 l 0.02735,3.2069655 -0.801117,0.01156 -0.801117,0.01156 0.01055,-2.4714341 0.01055,-2.471434 -8.208316,6.2e-6 -8.2083163,6.4e-6 0,12.9427384 0,12.942738 8.2083163,7e-6 8.208316,7e-6 -0.01056,-2.302703 -0.01056,-2.302703 0.788735,0 0.788735,0 -0.01576,3.48382 -0.01576,3.48382 -0.137517,0.339937 c -0.246418,0.609133 -0.669416,1.028388 -1.308313,1.296732 l -0.356907,0.149905 -7.9601813,-0.01985 z m 0.5027283,-1.154117 c 0.09471,-0.0406 0.1722,-0.09529 0.1722,-0.121542 0,-0.02625 0.01222,-0.03551 0.02717,-0.02056 0.03547,0.03547 0.293705,-0.214751 0.266708,-0.258433 -0.01136,-0.01838 -7.24e-4,-0.03341 0.02363,-0.03341 0.02435,0 0.07782,-0.07593 0.118822,-0.168732 0.09247,-0.209312 0.0973,-0.607271 0.01071,-0.88209 -0.08823,-0.280015 -0.403268,-0.588783 -0.686579,-0.672918 -0.2864477,-0.08507 -0.614433,-0.07893 -0.8221869,0.01537 -0.1834292,0.08326 -0.6196868,0.502331 -0.5836453,0.560647 0.012262,0.01984 0.00512,0.03608 -0.015866,0.03608 -0.061203,0 -0.1253318,0.232957 -0.1253318,0.455288 0,0.491097 0.2804136,0.934881 0.6866357,1.086673 0.2724629,0.10181 0.6948448,0.103465 0.9277388,0.0036 l 0,-10e-7 z M 12.38072,2.1210879 c 0.111123,-0.1043947 0.119964,-0.2917612 0.0199,-0.4217986 l -0.07022,-0.091255 -2.5527377,0.011852 -2.5527375,0.011852 -0.075873,0.093727 c -0.081325,0.1004625 -0.1031632,0.2834386 -0.033828,0.2834386 0.023125,0 0.031758,0.016643 0.019187,0.036985 -0.012572,0.020342 0.017147,0.065006 0.066043,0.099254 0.078462,0.054957 0.3824388,0.062269 2.5886381,0.062269 l 2.499737,0 0.09189,-0.086324 z"
     id="path3405"
     inkscape:connector-curvature="0" /><path
     style="fill:#ffffff"
     d="m 12.29395,27.719527 c -0.689947,-0.219125 -1.179516,-0.767475 -1.285915,-1.440313 -0.11614,-0.734433 0.287912,-1.486629 0.983131,-1.830225 0.290453,-0.143549 0.310789,-0.147609 0.739502,-0.147609 0.429443,0 0.448628,0.0039 0.742283,0.148983 0.356188,0.176038 0.678221,0.497969 0.851864,0.851595 0.105927,0.215721 0.113024,0.261335 0.113024,0.726444 0,0.468694 -0.0064,0.508874 -0.114921,0.723072 -0.24036,0.474361 -0.677972,0.839395 -1.153947,0.962567 -0.281765,0.07291 -0.655336,0.07526 -0.875021,0.0055 z"
     id="path3407"
     inkscape:connector-curvature="0" /></svg>