<?xml version="1.0" encoding="iso-8859-1"?>
<!-- Generator: Adobe Illustrator 16.0.4, SVG Export Plug-In . SVG Version: 6.00 Build 0)  -->
<!DOCTYPE svg PUBLIC "-//W3C//DTD SVG 1.1//EN" "http://www.w3.org/Graphics/SVG/1.1/DTD/svg11.dtd">
<svg version="1.1" id="Capa_1" xmlns="http://www.w3.org/2000/svg" xmlns:xlink="http://www.w3.org/1999/xlink" x="0px" y="0px"
	 width="34.156px" height="33.667px" viewBox="0 0 34.156 33.667" style="enable-background:new 0 0 34.156 33.667;"
	 xml:space="preserve">
<path d="M17.975,24.857v4.603H1.58V3.605h16.395v4.953h1.582V2.273C19.557,1.021,18.533,0,17.283,0H2.273C1.021,0,0,1.021,0,2.273
	v29.119c0,1.252,1.021,2.274,2.273,2.274h15.01c1.25,0,2.273-1.022,2.273-2.274v-6.535H17.975z M7.376,1.641h4.802
	c0.152,0,0.275,0.121,0.275,0.273c0,0.15-0.123,0.275-0.275,0.275H7.376c-0.152,0-0.274-0.125-0.274-0.275
	C7.102,1.762,7.224,1.641,7.376,1.641z M9.777,32.531c-0.627,0-1.137-0.51-1.137-1.139c0-0.627,0.51-1.136,1.137-1.136
	c0.629,0,1.139,0.509,1.139,1.136C10.915,32.021,10.406,32.531,9.777,32.531z M25.406,23.466H9.14l-2.993-13.44h18.301l-0.496,1.926
	H8.547l2.137,9.591h13.178l3.31-14.991h6.985v1.924h-5.44L25.406,23.466z M14.531,26.021c0,0.992-0.806,1.797-1.795,1.797
	c-0.992,0-1.797-0.805-1.797-1.797c0-0.99,0.805-1.795,1.797-1.795C13.727,24.227,14.531,25.031,14.531,26.021z M23.922,26.021
	c0,0.992-0.805,1.797-1.797,1.797c-0.99,0-1.795-0.805-1.795-1.797c0-0.99,0.805-1.795,1.795-1.795
	C23.117,24.227,23.922,25.031,23.922,26.021z"/>
<g>
</g>
<g>
</g>
<g>
</g>
<g>
</g>
<g>
</g>
<g>
</g>
<g>
</g>
<g>
</g>
<g>
</g>
<g>
</g>
<g>
</g>
<g>
</g>
<g>
</g>
<g>
</g>
<g>
</g>
</svg>
